<svg width="4103.18" height="2339.532" xmlns="http://www.w3.org/2000/svg">
 <defs>
  <radialGradient gradientUnits="userSpaceOnUse" gradientTransform="matrix(610,0,0,-1000.5,-755799.6249980927,921498.75)" r="0.925" cy="919.871" cx="1244.322" id="a">
   <stop stop-color="#f9be03" offset="0"/>
   <stop stop-color="#cc7c19" offset="1"/>
  </radialGradient>
 </defs>
 <title>plex-logo-light</title>
 <g>
  <title>Layer 1</title>
  <path id="svg_1" d="m-1.65575,0.60922l4103.18,0l0,2339.532l-4103.18,0l0,-2339.532z" fill="none"/>
  <path id="svg_2" d="m3592.92925,674.12522l-290.001,0l-289.999,500l289.999,500l289.748,0l-289.748,-499.75l290.001,-500.25" fill="#FFF"/>
  <path id="svg_3" d="m2692.94025,674.12522l290,0l320,500.25l-320,500.25l-290,0l319.999,-500.25l-319.999,-500.25" fill="url(#a)"/>
  <path id="svg_4" d="m2592.88625,1674.12522l-577.073,0l0,-1000l577.073,0l0,173.737l-364.607,0l0,219.562l339.255,0l0,173.731l-339.255,0l0,257.864l364.607,0l0,175.106m-1294.671,0l0,-1000l212.04,0l0,824.895l405.609,0l0,175.105l-617.649,0m-201.329,-441.176c-67.268,57.007 -162.91,85.501 -286.938,85.501l-90.968,0l0,355.675l-212.04,0l0,-529.662l290,0.359c177.562,-2.069 186.842,-110.818 186.842,-148.497c0,-34.979 0,-146.755 -157.842,-148.5l-319,0.003l0,-173.703l319.424,0c121.293,0 213.515,26.107 276.677,78.321c63.152,52.213 94.733,130.071 94.733,233.581c0,107.624 -33.633,189.928 -100.888,246.922z" fill="#FFF"/>
  <path id="svg_5" d="m506.94025,784.12522l212.2,0l0,429l-212.2,0l0,-429z" fill="#FFF"/>
 </g>
</svg>